<?xml version="1.0" standalone="no"?>
<!DOCTYPE svg PUBLIC "-//W3C//DTD SVG 20010904//EN"
 "http://www.w3.org/TR/2001/REC-SVG-20010904/DTD/svg10.dtd">
<svg version="1.0" xmlns="http://www.w3.org/2000/svg"
 width="400.000000pt" height="400.000000pt" viewBox="0 0 400.000000 400.000000"
 preserveAspectRatio="xMidYMid meet">
<metadata>
Created by potrace 1.14, written by Peter Selinger 2001-2017
</metadata>
<g transform="translate(0.000000,400.000000) scale(0.100000,-0.100000)"
fill="#000000" stroke="none">
<path d="M0 2000 l0 -2000 2000 0 2000 0 0 2000 0 2000 -2000 0 -2000 0 0
-2000z m2037 1178 c17 -35 155 -314 307 -621 l275 -557 -167 2 -166 3 -140
343 c-77 188 -142 342 -145 342 -3 0 -69 -156 -146 -345 l-140 -345 -162 0
c-90 0 -163 -2 -163 -3 0 -15 612 -1237 618 -1233 4 2 142 279 307 615 165
336 302 611 305 611 6 0 75 -136 386 -768 l233 -472 -166 2 -167 3 -139 343
c-77 188 -143 342 -146 342 -3 0 -69 -155 -146 -345 l-140 -345 -331 0 -331 0
-133 328 c-73 180 -138 337 -144 349 -10 19 -29 -23 -152 -325 l-142 -347
-165 -3 -166 -2 173 352 c96 194 332 675 526 1068 194 393 391 795 438 893 47
97 89 177 92 177 3 0 20 -28 37 -62z"/>
</g>
</svg>
